<svg width="306" height="153" viewBox="0 0 306 153" fill="none" xmlns="http://www.w3.org/2000/svg">
<rect x="0.941162" width="304.118" height="152.059" rx="18.2471" fill="#0F0B0F"/>
<path d="M126.803 98.1979C126.803 97.518 126.535 96.9239 126.001 96.4156C125.479 95.9139 124.872 95.6631 124.179 95.6631H121.733V100.733H124.179C124.878 100.733 125.489 100.482 126.011 99.9802C126.539 99.4719 126.803 98.8778 126.803 98.1979ZM131.358 98.1979C131.358 100.092 130.625 101.703 129.159 103.03C127.753 104.317 126.093 104.961 124.179 104.961H117V91.4449H124.179C126.08 91.4449 127.74 92.0853 129.159 93.3659C130.625 94.7059 131.358 96.3166 131.358 98.1979Z" fill="url(#paint0_linear_102_17)"/>
<path d="M132.209 104.961V91.4449H145.725V95.6631H137.279V96.4255H142.348V99.9802H137.279V100.733H145.725V104.961H132.209Z" fill="url(#paint1_linear_102_17)"/>
<path d="M158.241 104.961H150.131L146.586 91.4449H151.824L154.191 100.446L156.557 91.4449H161.795L158.241 104.961Z" fill="url(#paint2_linear_102_17)"/>
<path d="M162.647 104.961V91.4449H167.717V104.961H162.647Z" fill="white"/>
<path d="M175.747 104.961C173.833 104.961 172.172 104.317 170.766 103.03C169.301 101.703 168.568 100.092 168.568 98.1979C168.568 96.3166 169.301 94.7059 170.766 93.3659C172.186 92.0853 173.846 91.4449 175.747 91.4449C177.609 91.4449 179.249 92.0589 180.668 93.2867L177.569 96.376C177.021 95.9007 176.414 95.6631 175.747 95.6631C175.047 95.6631 174.437 95.9139 173.915 96.4156C173.387 96.9239 173.123 97.518 173.123 98.1979C173.123 98.8844 173.384 99.4785 173.905 99.9802C174.427 100.482 175.041 100.733 175.747 100.733H177.856V98.1979H182.926V104.961H175.747Z" fill="white"/>
<path d="M193.065 104.961C193.012 103.502 192.659 102.228 192.006 101.139C191.227 99.8119 190.174 99.1155 188.847 99.0495V104.961H183.777V91.4449H183.837C185.731 91.4449 187.457 91.7717 189.015 92.4252C190.771 93.1645 192.121 94.2438 193.065 95.6631V91.4449H198.135V104.961H193.065Z" fill="white"/>
<path d="M119.765 113.615V114.198H118.112V113.615H119.765ZM118.314 110.392V114.198H117.613V110.392H118.314ZM119.542 111.955V112.523H118.112V111.955H119.542ZM119.754 110.392V110.978H118.112V110.392H119.754ZM126.79 110.392L127.376 111.707L127.938 110.392H128.72L127.784 112.277L128.738 114.198H127.93L127.345 112.857L126.762 114.198H125.969L126.934 112.264L125.99 110.392H126.79ZM136.399 112.823H135.607V112.238H136.396C136.518 112.238 136.616 112.212 136.689 112.162C136.764 112.11 136.818 112.037 136.851 111.945C136.886 111.852 136.904 111.748 136.904 111.631C136.904 111.518 136.886 111.412 136.851 111.312C136.818 111.211 136.764 111.13 136.689 111.069C136.616 111.008 136.519 110.978 136.399 110.978H135.819V114.198H135.121V110.392H136.399C136.652 110.392 136.869 110.445 137.05 110.551C137.231 110.658 137.37 110.804 137.466 110.991C137.563 111.175 137.612 111.387 137.612 111.626C137.612 111.872 137.563 112.084 137.466 112.264C137.368 112.442 137.229 112.579 137.047 112.677C136.868 112.775 136.652 112.823 136.399 112.823ZM146.243 113.615V114.198H144.591V113.615H146.243ZM144.792 110.392V114.198H144.091V110.392H144.792ZM146.021 111.955V112.523H144.591V111.955H146.021ZM146.233 110.392V110.978H144.591V110.392H146.233ZM152.673 110.392H153.857C154.11 110.392 154.325 110.435 154.503 110.523C154.68 110.61 154.816 110.739 154.908 110.91C155.002 111.08 155.049 111.29 155.049 111.54C155.049 111.738 155.02 111.911 154.963 112.057C154.907 112.202 154.827 112.323 154.722 112.421C154.619 112.518 154.495 112.594 154.348 112.648L154.137 112.768H153.156L153.154 112.185H153.841C153.955 112.185 154.049 112.16 154.124 112.11C154.2 112.059 154.257 111.989 154.294 111.9C154.332 111.81 154.351 111.706 154.351 111.589C154.351 111.462 154.334 111.353 154.299 111.262C154.266 111.17 154.212 111.1 154.139 111.051C154.068 111.002 153.974 110.978 153.857 110.978H153.373V114.198H152.673V110.392ZM154.424 114.198L153.711 112.494H154.445L155.172 114.162V114.198H154.424ZM162.279 110.392V114.198H161.583V110.392H162.279ZM171.069 113.615V114.198H169.417V113.615H171.069ZM169.618 110.392V114.198H168.917V110.392H169.618ZM170.847 111.955V112.523H169.417V111.955H170.847ZM171.059 110.392V110.978H169.417V110.392H171.059ZM180.118 110.392V114.198H179.436L178.165 111.691V114.198H177.496V110.392H178.168L179.449 112.923V110.392H180.118ZM188.564 112.944H189.262C189.249 113.224 189.192 113.462 189.089 113.657C188.988 113.851 188.842 113.998 188.652 114.099C188.464 114.2 188.235 114.251 187.965 114.251C187.759 114.251 187.575 114.215 187.413 114.144C187.251 114.07 187.113 113.965 187 113.827C186.889 113.69 186.803 113.52 186.744 113.32C186.686 113.118 186.658 112.887 186.658 112.627V111.966C186.658 111.706 186.688 111.475 186.749 111.273C186.81 111.071 186.897 110.9 187.011 110.761C187.126 110.621 187.265 110.516 187.429 110.444C187.593 110.373 187.778 110.337 187.983 110.337C188.255 110.337 188.483 110.388 188.666 110.491C188.849 110.594 188.99 110.745 189.089 110.944C189.188 111.14 189.247 111.381 189.264 111.665H188.566C188.559 111.48 188.537 111.334 188.498 111.226C188.46 111.116 188.4 111.038 188.318 110.991C188.236 110.944 188.124 110.92 187.983 110.92C187.873 110.92 187.778 110.94 187.698 110.98C187.618 111.02 187.553 111.083 187.502 111.168C187.452 111.252 187.414 111.359 187.39 111.49C187.365 111.621 187.353 111.778 187.353 111.961V112.627C187.353 112.803 187.364 112.957 187.384 113.087C187.405 113.218 187.439 113.327 187.484 113.414C187.531 113.5 187.594 113.564 187.672 113.608C187.75 113.649 187.848 113.67 187.965 113.67C188.106 113.67 188.218 113.649 188.302 113.608C188.386 113.564 188.448 113.49 188.488 113.385C188.53 113.279 188.555 113.132 188.564 112.944ZM197.872 113.615V114.198H196.219V113.615H197.872ZM196.421 110.392V114.198H195.72V110.392H196.421ZM197.649 111.955V112.523H196.219V111.955H197.649ZM197.861 110.392V110.978H196.219V110.392H197.861Z" fill="white"/>
<path d="M177.085 81.4594L169.691 72.0678L162.296 81.4594H141.278L159.165 58.713L141.278 36H162.296L169.691 45.3583L177.085 36H198.103L180.216 58.713L198.103 81.4594H177.085Z" fill="white"/>
<g filter="url(#filter0_d_102_17)">
<path d="M149.967 58.7107C149.967 56.424 149.068 54.426 147.27 52.7166C145.516 51.0294 143.474 50.1858 141.143 50.1858H132.917V67.2355H141.143C143.496 67.2355 145.549 66.3919 147.303 64.7047C149.079 62.9953 149.967 60.9973 149.967 58.7107ZM165.285 58.7107C165.285 65.0821 162.821 70.4989 157.893 74.9611C153.164 79.2901 147.581 81.4546 141.143 81.4546H117V36H141.143C147.536 36 153.119 38.1534 157.893 42.4602C162.821 46.9668 165.285 52.3836 165.285 58.7107Z" fill="url(#paint3_linear_102_17)"/>
</g>
<defs>
<filter id="filter0_d_102_17" x="113.621" y="31.699" width="58.1159" height="55.2853" filterUnits="userSpaceOnUse" color-interpolation-filters="sRGB">
<feFlood flood-opacity="0" result="BackgroundImageFix"/>
<feColorMatrix in="SourceAlpha" type="matrix" values="0 0 0 0 0 0 0 0 0 0 0 0 0 0 0 0 0 0 127 0" result="hardAlpha"/>
<feOffset dx="1.53605" dy="0.614422"/>
<feGaussianBlur stdDeviation="2.45769"/>
<feComposite in2="hardAlpha" operator="out"/>
<feColorMatrix type="matrix" values="0 0 0 0 0 0 0 0 0 0 0 0 0 0 0 0 0 0 0.5 0"/>
<feBlend mode="normal" in2="BackgroundImageFix" result="effect1_dropShadow_102_17"/>
<feBlend mode="normal" in="SourceGraphic" in2="effect1_dropShadow_102_17" result="shape"/>
</filter>
<linearGradient id="paint0_linear_102_17" x1="117" y1="112.503" x2="198.496" y2="112.503" gradientUnits="userSpaceOnUse">
<stop stop-color="#AD00FF"/>
<stop offset="1" stop-color="#FF0099"/>
</linearGradient>
<linearGradient id="paint1_linear_102_17" x1="117" y1="112.503" x2="198.496" y2="112.503" gradientUnits="userSpaceOnUse">
<stop stop-color="#AD00FF"/>
<stop offset="1" stop-color="#FF0099"/>
</linearGradient>
<linearGradient id="paint2_linear_102_17" x1="117" y1="112.503" x2="198.496" y2="112.503" gradientUnits="userSpaceOnUse">
<stop stop-color="#AD00FF"/>
<stop offset="1" stop-color="#FF0099"/>
</linearGradient>
<linearGradient id="paint3_linear_102_17" x1="117" y1="106.819" x2="165.5" y2="106.819" gradientUnits="userSpaceOnUse">
<stop stop-color="#AD00FF"/>
<stop offset="1" stop-color="#FF0099"/>
</linearGradient>
</defs>
</svg>
