<svg width="305" height="153" viewBox="0 0 305 153" fill="none" xmlns="http://www.w3.org/2000/svg">
<rect y="0.941162" width="304.118" height="152.059" rx="18.2471" fill="white"/>
<path d="M71.0191 72.5809H83.1226L82.7628 68.361H71.4116L71.0191 72.5809ZM77.0054 62.5055L80.2439 69.9312L80.0477 71.3378L82.7955 76.9971H89.0763L77.0054 52.6591L64.9673 76.9971H71.2153L74.0613 71.1089L73.7996 69.8985L77.0054 62.5055ZM94.8124 68.9498L90.9524 71.7304C91.4758 72.8208 92.2063 73.824 93.1441 74.7399C94.0818 75.6559 95.1832 76.3864 96.448 76.9316C97.7347 77.455 99.1195 77.7167 100.602 77.7167C101.671 77.7167 102.707 77.5532 103.71 77.2261C104.735 76.9207 105.64 76.4628 106.425 75.8521C107.232 75.2415 107.865 74.4891 108.323 73.595C108.802 72.679 109.042 71.6432 109.042 70.4873C109.042 69.5278 108.89 68.6772 108.584 67.9358C108.279 67.1943 107.854 66.54 107.309 65.973C106.785 65.406 106.174 64.9262 105.477 64.5337C104.779 64.1193 104.026 63.7595 103.219 63.4542C102.151 63.0834 101.235 62.7345 100.472 62.4074C99.7302 62.0803 99.1522 61.7204 98.7379 61.3279C98.3453 60.9353 98.1491 60.4774 98.1491 59.954C98.1491 59.4524 98.3562 59.038 98.7706 58.7109C99.185 58.362 99.7847 58.1875 100.57 58.1875C101.159 58.1875 101.704 58.3074 102.205 58.5473C102.729 58.7654 103.198 59.0816 103.612 59.496C104.048 59.8885 104.43 60.3574 104.757 60.9026L108.977 58.5473C108.584 57.7622 108.017 56.988 107.276 56.2248C106.534 55.4615 105.597 54.829 104.463 54.3274C103.35 53.8258 102.031 53.5751 100.504 53.5751C99.0214 53.5751 97.6693 53.8368 96.448 54.3602C95.2486 54.8617 94.289 55.6032 93.5693 56.5846C92.8715 57.566 92.5226 58.7327 92.5226 60.0848C92.5226 61.2188 92.7297 62.1893 93.1441 62.9962C93.5584 63.7813 94.0818 64.4574 94.7143 65.0244C95.3467 65.5696 96.0119 66.0166 96.7097 66.3656C97.4294 66.7145 98.0618 66.9871 98.607 67.1834C99.7193 67.5977 100.613 67.9685 101.289 68.2956C101.966 68.6227 102.456 68.9716 102.762 69.3424C103.067 69.6913 103.219 70.1602 103.219 70.749C103.219 71.4469 102.958 72.003 102.434 72.4173C101.911 72.8099 101.246 73.0062 100.439 73.0062C99.6756 73.0062 98.9451 72.8426 98.2472 72.5155C97.5712 72.1884 96.9387 71.7195 96.3499 71.1089C95.7829 70.4982 95.2704 69.7786 94.8124 68.9498ZM117.22 76.9971H128.768V72.4501H117.22V76.9971ZM117.22 58.6455H128.768V54.0985H117.22V58.6455ZM117.22 67.1834H128.114V62.7345H117.22V67.1834ZM113.557 54.0985V76.9971H118.856V54.0985H113.557ZM131.795 59.038H138.076V76.9971H143.604V59.038H149.918V54.0985H131.795V59.038ZM163.865 54.0985V76.9971H169.393V54.0985H163.865ZM167.332 58.6455H171.814C172.926 58.6455 173.798 58.8963 174.431 59.3978C175.063 59.8994 175.379 60.63 175.379 61.5896C175.379 62.5273 175.063 63.247 174.431 63.7486C173.798 64.2502 172.926 64.501 171.814 64.501H167.332V69.048H171.814C173.755 69.048 175.379 68.7536 176.688 68.1647C178.018 67.5541 179.021 66.6927 179.697 65.5805C180.373 64.4464 180.711 63.1161 180.711 61.5896C180.711 60.0194 180.373 58.6782 179.697 57.566C179.021 56.4537 178.018 55.6032 176.688 55.0144C175.379 54.4038 173.755 54.0985 171.814 54.0985H167.332V58.6455ZM187.41 72.2865C187.41 71.9158 187.497 71.6104 187.672 71.3706C187.846 71.1089 188.108 70.9126 188.457 70.7817C188.806 70.6509 189.275 70.5855 189.863 70.5855C190.627 70.5855 191.346 70.6945 192.022 70.9126C192.72 71.1089 193.331 71.4033 193.854 71.7958V69.6041C193.593 69.3206 193.2 69.048 192.677 68.7863C192.153 68.5246 191.521 68.3065 190.779 68.132C190.06 67.9576 189.242 67.8703 188.326 67.8703C186.45 67.8703 185 68.2956 183.975 69.1461C182.95 69.9748 182.438 71.1089 182.438 72.5482C182.438 73.5732 182.678 74.4455 183.157 75.1652C183.659 75.8849 184.313 76.4301 185.12 76.8008C185.949 77.1497 186.843 77.3242 187.803 77.3242C188.762 77.3242 189.656 77.1606 190.485 76.8335C191.314 76.4846 191.99 75.983 192.513 75.3287C193.036 74.6527 193.298 73.8349 193.298 72.8753L192.775 70.9126C192.775 71.6104 192.622 72.1993 192.317 72.679C192.012 73.1588 191.619 73.5187 191.139 73.7586C190.659 73.9984 190.136 74.1184 189.569 74.1184C189.176 74.1184 188.817 74.053 188.489 73.9221C188.162 73.7695 187.901 73.5623 187.704 73.3006C187.508 73.0171 187.41 72.679 187.41 72.2865ZM185.218 66.5618C185.436 66.431 185.785 66.2674 186.265 66.0712C186.745 65.8531 187.301 65.6677 187.933 65.515C188.588 65.3624 189.253 65.2861 189.929 65.2861C190.387 65.2861 190.79 65.3297 191.139 65.4169C191.51 65.5041 191.815 65.6459 192.055 65.8422C192.295 66.0384 192.469 66.2783 192.579 66.5618C192.709 66.8235 192.775 67.1398 192.775 67.5105V76.9971H197.518V66.3983C197.518 65.3515 197.213 64.4683 196.602 63.7486C195.992 63.0289 195.163 62.4837 194.116 62.113C193.069 61.7204 191.881 61.5241 190.55 61.5241C189.133 61.5241 187.824 61.7095 186.625 62.0803C185.425 62.451 184.4 62.8435 183.55 63.2579L185.218 66.5618ZM211.815 67.8376V76.9971H216.951V67.3142C216.951 65.5041 216.526 64.0975 215.675 63.0943C214.825 62.0912 213.462 61.5896 211.586 61.5896C210.474 61.5896 209.536 61.8186 208.773 62.2765C208.032 62.7345 207.443 63.3778 207.007 64.2066V61.9494H202.034V76.9971H207.007V67.8376C207.007 67.2488 207.116 66.7472 207.334 66.3329C207.552 65.9185 207.857 65.6023 208.25 65.3842C208.642 65.1661 209.1 65.0571 209.624 65.0571C210.409 65.0571 210.965 65.297 211.292 65.7767C211.641 66.2565 211.815 66.9435 211.815 67.8376ZM220.785 69.4732C220.785 71.0434 221.156 72.4173 221.897 73.595C222.639 74.7726 223.664 75.6886 224.972 76.3428C226.281 76.9971 227.753 77.3242 229.388 77.3242C231.024 77.3242 232.485 76.9971 233.772 76.3428C235.08 75.6886 236.105 74.7726 236.847 73.595C237.61 72.4173 237.992 71.0434 237.992 69.4732C237.992 67.8812 237.61 66.4964 236.847 65.3188C236.105 64.1411 235.08 63.2252 233.772 62.5709C232.485 61.9167 231.024 61.5896 229.388 61.5896C227.753 61.5896 226.281 61.9167 224.972 62.5709C223.664 63.2252 222.639 64.1411 221.897 65.3188C221.156 66.4964 220.785 67.8812 220.785 69.4732ZM225.855 69.4732C225.855 68.6881 226.019 68.0121 226.346 67.4451C226.673 66.8781 227.098 66.4419 227.622 66.1366C228.145 65.8313 228.734 65.6786 229.388 65.6786C230.021 65.6786 230.599 65.8313 231.122 66.1366C231.667 66.4419 232.093 66.8781 232.398 67.4451C232.725 68.0121 232.889 68.6881 232.889 69.4732C232.889 70.2583 232.725 70.9344 232.398 71.5014C232.093 72.0466 231.667 72.4719 231.122 72.7772C230.599 73.0825 230.021 73.2352 229.388 73.2352C228.734 73.2352 228.145 73.0825 227.622 72.7772C227.098 72.4719 226.673 72.0466 226.346 71.5014C226.019 70.9344 225.855 70.2583 225.855 69.4732Z" fill="#F60302"/>
<path d="M53.3477 102.697H52.237L54.7326 95.7622H55.9415L58.437 102.697H57.3264L55.3658 97.0219H55.3116L53.3477 102.697ZM53.5339 99.9813H57.1368V100.862H53.5339V99.9813ZM64.6629 102.792C64.1979 102.792 63.7825 102.712 63.4168 102.551C63.0534 102.391 62.7656 102.169 62.5534 101.884C62.3434 101.598 62.2306 101.266 62.2148 100.889H63.278C63.2915 101.094 63.3604 101.273 63.4846 101.424C63.611 101.573 63.7758 101.688 63.9789 101.769C64.1821 101.85 64.4078 101.891 64.6562 101.891C64.9293 101.891 65.1708 101.844 65.3808 101.749C65.593 101.654 65.7589 101.522 65.8785 101.353C65.9982 101.181 66.058 100.984 66.058 100.76C66.058 100.528 65.9982 100.323 65.8785 100.147C65.7612 99.9689 65.5885 99.829 65.3605 99.7274C65.1347 99.6258 64.8616 99.575 64.541 99.575H63.9552V98.7217H64.541C64.7984 98.7217 65.0241 98.6754 65.2183 98.5829C65.4146 98.4903 65.5682 98.3616 65.6788 98.1968C65.7894 98.0298 65.8447 97.8345 65.8447 97.611C65.8447 97.3966 65.7962 97.2104 65.6991 97.0523C65.6043 96.8921 65.4688 96.7668 65.2927 96.6765C65.1189 96.5862 64.9135 96.541 64.6765 96.541C64.4507 96.541 64.2397 96.5828 64.0433 96.6663C63.8491 96.7476 63.6911 96.865 63.5692 97.0185C63.4473 97.1697 63.3818 97.3514 63.3728 97.5636H62.3604C62.3716 97.1889 62.4823 96.8593 62.6922 96.5749C62.9044 96.2905 63.1843 96.0681 63.532 95.9078C63.8796 95.7475 64.2656 95.6674 64.69 95.6674C65.1347 95.6674 65.5185 95.7543 65.8413 95.9281C66.1664 96.0997 66.4169 96.3288 66.593 96.6155C66.7714 96.9022 66.8594 97.216 66.8571 97.5569C66.8594 97.9451 66.751 98.2747 66.5321 98.5456C66.3154 98.8165 66.0264 98.9982 65.6652 99.0908V99.145C66.1257 99.2149 66.4824 99.3978 66.7352 99.6935C66.9903 99.9892 67.1167 100.356 67.1145 100.794C67.1167 101.176 67.0106 101.518 66.7962 101.82C66.584 102.123 66.2939 102.361 65.926 102.534C65.558 102.706 65.137 102.792 64.6629 102.792ZM71.0062 102.792C70.697 102.787 70.3922 102.731 70.092 102.623C69.794 102.514 69.5231 102.334 69.2793 102.081C69.0355 101.828 68.8402 101.488 68.6935 101.062C68.549 100.635 68.4768 100.102 68.4768 99.4633C68.4768 98.8583 68.5366 98.321 68.6563 97.8515C68.7782 97.3819 68.9531 96.9857 69.1811 96.6629C69.4091 96.3379 69.6845 96.0907 70.0073 95.9214C70.3301 95.7521 70.6925 95.6674 71.0943 95.6674C71.5074 95.6674 71.8742 95.7487 72.1948 95.9112C72.5153 96.0737 72.7749 96.2984 72.9736 96.585C73.1745 96.8717 73.302 97.1979 73.3562 97.5636H72.3234C72.2535 97.2747 72.1146 97.0388 71.907 96.8559C71.6993 96.6731 71.4284 96.5817 71.0943 96.5817C70.5864 96.5817 70.1902 96.8029 69.9057 97.2453C69.6236 97.6878 69.4813 98.3029 69.4791 99.0908H69.5299C69.6495 98.8944 69.7963 98.7273 69.9701 98.5896C70.1462 98.4497 70.3426 98.3425 70.5593 98.268C70.7782 98.1912 71.0085 98.1528 71.25 98.1528C71.6519 98.1528 72.0153 98.251 72.3404 98.4474C72.6677 98.6416 72.9284 98.9102 73.1226 99.2533C73.3167 99.5965 73.4138 99.9892 73.4138 100.432C73.4138 100.874 73.3133 101.275 73.1124 101.634C72.9138 101.993 72.6338 102.277 72.2727 102.487C71.9115 102.695 71.4893 102.796 71.0062 102.792ZM71.0029 101.911C71.2692 101.911 71.5074 101.846 71.7173 101.715C71.9273 101.584 72.0932 101.408 72.2151 101.187C72.337 100.966 72.3979 100.718 72.3979 100.445C72.3979 100.179 72.3381 99.9362 72.2185 99.7172C72.1011 99.4983 71.9386 99.3244 71.7309 99.1958C71.5254 99.0671 71.2907 99.0027 71.0266 99.0027C70.8256 99.0027 70.6394 99.0411 70.4678 99.1179C70.2985 99.1946 70.1495 99.3007 70.0209 99.4362C69.8922 99.5716 69.7906 99.7274 69.7161 99.9035C69.6439 100.077 69.6078 100.261 69.6078 100.455C69.6078 100.715 69.6676 100.955 69.7872 101.177C69.9091 101.398 70.0751 101.576 70.285 101.712C70.4972 101.845 70.7365 101.911 71.0029 101.911ZM77.2522 102.812C76.7172 102.81 76.2601 102.669 75.8808 102.389C75.5016 102.109 75.2115 101.701 75.0106 101.166C74.8097 100.631 74.7092 99.987 74.7092 99.233C74.7092 98.4813 74.8097 97.839 75.0106 97.3063C75.2137 96.7735 75.505 96.3672 75.8842 96.0873C76.2657 95.8074 76.7217 95.6674 77.2522 95.6674C77.7827 95.6674 78.2376 95.8085 78.6168 96.0907C78.9961 96.3706 79.2861 96.7769 79.4871 97.3097C79.6902 97.8402 79.7918 98.4813 79.7918 99.233C79.7918 99.9892 79.6913 100.635 79.4904 101.17C79.2895 101.703 78.9994 102.11 78.6202 102.392C78.241 102.672 77.785 102.812 77.2522 102.812ZM77.2522 101.908C77.7217 101.908 78.0886 101.679 78.3527 101.221C78.6191 100.762 78.7523 100.1 78.7523 99.233C78.7523 98.6574 78.6913 98.1709 78.5694 97.7736C78.4498 97.374 78.2771 97.0715 78.0513 96.8661C77.8278 96.6584 77.5615 96.5546 77.2522 96.5546C76.7849 96.5546 76.4181 96.7848 76.1517 97.2453C75.8853 97.7059 75.751 98.3684 75.7488 99.233C75.7488 99.8109 75.8086 100.3 75.9282 100.699C76.0501 101.097 76.2228 101.398 76.4463 101.603C76.6698 101.806 76.9384 101.908 77.2522 101.908ZM83.9928 102.697V95.7622H88.3406V96.6629H85.0391V98.7759H88.1137V99.6732H85.0391V101.796H88.3812V102.697H83.9928ZM90.6569 95.7622L92.3161 98.4745H92.3703L94.0295 95.7622H95.2418L93.0814 99.2296L95.2553 102.697H94.0363L92.3703 100.022H92.3161L90.6502 102.697H89.4311L91.6423 99.2296L89.4447 95.7622H90.6569ZM96.4703 102.697V95.7622H98.9422C99.4817 95.7622 99.9287 95.8604 100.283 96.0568C100.638 96.2532 100.903 96.5218 101.079 96.8627C101.255 97.2013 101.343 97.5828 101.343 98.0072C101.343 98.4339 101.254 98.8176 101.075 99.1585C100.899 99.4971 100.633 99.7658 100.276 99.9644C99.9219 100.161 99.4761 100.259 98.9388 100.259H97.239V99.3718H98.844C99.1849 99.3718 99.4614 99.3131 99.6736 99.1958C99.8858 99.0761 100.042 98.9136 100.141 98.7082C100.24 98.5027 100.29 98.2691 100.29 98.0072C100.29 97.7454 100.24 97.5128 100.141 97.3097C100.042 97.1065 99.8847 96.9474 99.6702 96.8322C99.458 96.7171 99.1781 96.6595 98.8304 96.6595H97.5166V102.697H96.4703ZM102.76 102.697V95.7622H107.108V96.6629H103.807V98.7759H106.881V99.6732H103.807V101.796H107.149V102.697H102.76ZM108.696 102.697V95.7622H111.168C111.706 95.7622 112.151 95.8548 112.506 96.0399C112.862 96.225 113.129 96.4812 113.305 96.8085C113.481 97.1336 113.569 97.5095 113.569 97.9361C113.569 98.3605 113.48 98.7341 113.302 99.0569C113.125 99.3775 112.859 99.6269 112.502 99.8053C112.148 99.9836 111.702 100.073 111.165 100.073H109.292V99.1721H111.07C111.409 99.1721 111.684 99.1235 111.896 99.0265C112.111 98.9294 112.268 98.7883 112.367 98.6032C112.466 98.4181 112.516 98.1957 112.516 97.9361C112.516 97.6743 112.465 97.4474 112.364 97.2555C112.264 97.0636 112.107 96.9169 111.893 96.8153C111.681 96.7115 111.402 96.6595 111.057 96.6595H109.743V102.697H108.696ZM112.12 99.5682L113.833 102.697H112.641L110.962 99.5682H112.12ZM116.079 95.7622V102.697H115.033V95.7622H116.079ZM117.794 102.697V95.7622H122.142V96.6629H118.84V98.7759H121.915V99.6732H118.84V101.796H122.182V102.697H117.794ZM129.327 95.7622V102.697H128.366L124.841 97.611H124.776V102.697H123.73V95.7622H124.698L128.227 100.855H128.291V95.7622H129.327ZM136.804 98.0174H135.748C135.707 97.7916 135.631 97.593 135.521 97.4214C135.41 97.2499 135.275 97.1043 135.114 96.9846C134.954 96.865 134.775 96.7747 134.576 96.7137C134.38 96.6528 134.171 96.6223 133.949 96.6223C133.55 96.6223 133.192 96.7228 132.876 96.9237C132.562 97.1246 132.314 97.4192 132.131 97.8074C131.951 98.1957 131.86 98.6698 131.86 99.2296C131.86 99.794 131.951 100.27 132.131 100.659C132.314 101.047 132.563 101.34 132.879 101.539C133.195 101.738 133.551 101.837 133.946 101.837C134.165 101.837 134.373 101.808 134.569 101.749C134.768 101.688 134.947 101.599 135.108 101.481C135.268 101.364 135.403 101.221 135.514 101.051C135.627 100.88 135.705 100.683 135.748 100.462L136.804 100.466C136.748 100.806 136.638 101.12 136.476 101.407C136.315 101.691 136.109 101.937 135.856 102.145C135.605 102.351 135.319 102.51 134.996 102.623C134.673 102.735 134.321 102.792 133.939 102.792C133.339 102.792 132.804 102.65 132.334 102.365C131.865 102.078 131.495 101.669 131.224 101.136C130.955 100.603 130.821 99.9678 130.821 99.2296C130.821 98.4892 130.956 97.8537 131.227 97.3232C131.498 96.7905 131.868 96.3819 132.338 96.0974C132.807 95.8108 133.341 95.6674 133.939 95.6674C134.307 95.6674 134.65 95.7205 134.969 95.8266C135.289 95.9304 135.577 96.0839 135.832 96.2871C136.087 96.488 136.298 96.734 136.465 97.0252C136.632 97.3142 136.745 97.6449 136.804 98.0174ZM138.247 102.697V95.7622H142.595V96.6629H139.293V98.7759H142.368V99.6732H139.293V101.796H142.635V102.697H138.247ZM152.921 99.2296C152.921 99.9701 152.786 100.607 152.515 101.139C152.244 101.67 151.872 102.078 151.401 102.365C150.931 102.65 150.397 102.792 149.799 102.792C149.199 102.792 148.662 102.65 148.191 102.365C147.721 102.078 147.351 101.669 147.08 101.136C146.809 100.603 146.674 99.9678 146.674 99.2296C146.674 98.4892 146.809 97.8537 147.08 97.3232C147.351 96.7905 147.721 96.3819 148.191 96.0974C148.662 95.8108 149.199 95.6674 149.799 95.6674C150.397 95.6674 150.931 95.8108 151.401 96.0974C151.872 96.3819 152.244 96.7905 152.515 97.3232C152.786 97.8537 152.921 98.4892 152.921 99.2296ZM151.885 99.2296C151.885 98.6653 151.793 98.1901 151.611 97.8041C151.43 97.4158 151.182 97.1223 150.866 96.9237C150.552 96.7228 150.196 96.6223 149.799 96.6223C149.399 96.6223 149.043 96.7228 148.729 96.9237C148.415 97.1223 148.167 97.4158 147.984 97.8041C147.803 98.1901 147.713 98.6653 147.713 99.2296C147.713 99.794 147.803 100.27 147.984 100.659C148.167 101.045 148.415 101.338 148.729 101.539C149.043 101.738 149.399 101.837 149.799 101.837C150.196 101.837 150.552 101.738 150.866 101.539C151.182 101.338 151.43 101.045 151.611 100.659C151.793 100.27 151.885 99.794 151.885 99.2296ZM154.416 102.697V95.7622H158.717V96.6629H155.463V98.7759H158.408V99.6732H155.463V102.697H154.416ZM163.494 102.697H162.383L164.879 95.7622H166.088L168.583 102.697H167.473L165.512 97.0219H165.458L163.494 102.697ZM163.68 99.9813H167.283V100.862H163.68V99.9813ZM173.502 97.584C173.466 97.2634 173.317 97.0151 173.055 96.839C172.793 96.6607 172.464 96.5715 172.066 96.5715C171.782 96.5715 171.536 96.6167 171.328 96.7069C171.12 96.795 170.959 96.9169 170.844 97.0727C170.731 97.2262 170.675 97.4011 170.675 97.5975C170.675 97.7623 170.713 97.9045 170.79 98.0242C170.869 98.1438 170.971 98.2443 171.098 98.3255C171.227 98.4045 171.364 98.4711 171.511 98.5253C171.658 98.5772 171.799 98.6201 171.934 98.654L172.611 98.8301C172.833 98.8842 173.06 98.9576 173.292 99.0502C173.525 99.1427 173.74 99.2646 173.939 99.4159C174.137 99.5671 174.298 99.7545 174.42 99.978C174.544 100.201 174.606 100.469 174.606 100.78C174.606 101.173 174.504 101.522 174.301 101.827C174.1 102.132 173.808 102.372 173.424 102.548C173.043 102.724 172.581 102.812 172.039 102.812C171.52 102.812 171.071 102.73 170.692 102.565C170.312 102.4 170.015 102.167 169.801 101.864C169.587 101.559 169.468 101.198 169.445 100.78H170.495C170.515 101.031 170.597 101.24 170.739 101.407C170.883 101.572 171.067 101.695 171.291 101.776C171.517 101.855 171.764 101.895 172.032 101.895C172.328 101.895 172.591 101.848 172.821 101.756C173.054 101.661 173.237 101.53 173.37 101.363C173.503 101.194 173.57 100.996 173.57 100.77C173.57 100.565 173.511 100.397 173.394 100.266C173.279 100.135 173.122 100.026 172.923 99.9407C172.727 99.8549 172.504 99.7793 172.256 99.7138L171.436 99.4904C170.881 99.3391 170.441 99.1167 170.116 98.8233C169.793 98.5298 169.632 98.1415 169.632 97.6585C169.632 97.2589 169.74 96.9101 169.957 96.6121C170.173 96.3142 170.467 96.0828 170.837 95.918C171.207 95.7509 171.625 95.6674 172.09 95.6674C172.56 95.6674 172.974 95.7498 173.333 95.9146C173.694 96.0794 173.978 96.3063 174.186 96.5952C174.394 96.8819 174.502 97.2115 174.511 97.584H173.502ZM176.047 102.697V95.7622H180.395V96.6629H177.093V98.7759H180.168V99.6732H177.093V101.796H180.435V102.697H176.047ZM181.641 96.6629V95.7622H187.008V96.6629H184.844V102.697H183.801V96.6629H181.641ZM191.099 102.697V95.7622H195.399V96.6629H192.145V98.7759H195.091V99.6732H192.145V102.697H191.099ZM196.877 102.697V95.7622H199.349C199.886 95.7622 200.332 95.8548 200.686 96.0399C201.043 96.225 201.309 96.4812 201.485 96.8085C201.661 97.1336 201.75 97.5095 201.75 97.9361C201.75 98.3605 201.66 98.7341 201.482 99.0569C201.306 99.3775 201.04 99.6269 200.683 99.8053C200.328 99.9836 199.883 100.073 199.345 100.073H197.473V99.1721H199.251C199.589 99.1721 199.865 99.1235 200.077 99.0265C200.291 98.9294 200.448 98.7883 200.547 98.6032C200.647 98.4181 200.696 98.1957 200.696 97.9361C200.696 97.6743 200.646 97.4474 200.544 97.2555C200.445 97.0636 200.288 96.9169 200.073 96.8153C199.861 96.7115 199.582 96.6595 199.237 96.6595H197.923V102.697H196.877ZM200.3 99.5682L202.014 102.697H200.822L199.142 99.5682H200.3ZM209.237 99.2296C209.237 99.9701 209.102 100.607 208.831 101.139C208.56 101.67 208.189 102.078 207.717 102.365C207.247 102.65 206.714 102.792 206.115 102.792C205.515 102.792 204.979 102.65 204.507 102.365C204.037 102.078 203.667 101.669 203.396 101.136C203.125 100.603 202.99 99.9678 202.99 99.2296C202.99 98.4892 203.125 97.8537 203.396 97.3232C203.667 96.7905 204.037 96.3819 204.507 96.0974C204.979 95.8108 205.515 95.6674 206.115 95.6674C206.714 95.6674 207.247 95.8108 207.717 96.0974C208.189 96.3819 208.56 96.7905 208.831 97.3232C209.102 97.8537 209.237 98.4892 209.237 99.2296ZM208.201 99.2296C208.201 98.6653 208.11 98.1901 207.927 97.8041C207.746 97.4158 207.498 97.1223 207.182 96.9237C206.868 96.7228 206.513 96.6223 206.115 96.6223C205.716 96.6223 205.359 96.7228 205.045 96.9237C204.732 97.1223 204.483 97.4158 204.3 97.8041C204.12 98.1901 204.029 98.6653 204.029 99.2296C204.029 99.794 204.12 100.27 204.3 100.659C204.483 101.045 204.732 101.338 205.045 101.539C205.359 101.738 205.716 101.837 206.115 101.837C206.513 101.837 206.868 101.738 207.182 101.539C207.498 101.338 207.746 101.045 207.927 100.659C208.11 100.27 208.201 99.794 208.201 99.2296ZM216.33 95.7622V102.697H215.368L211.843 97.611H211.779V102.697H210.733V95.7622H211.701L215.229 100.855H215.294V95.7622H216.33ZM217.705 96.6629V95.7622H223.072V96.6629H220.908V102.697H219.865V96.6629H217.705ZM227.769 95.7622L229.699 101.41H229.777L231.707 95.7622H232.838L230.342 102.697H229.134L226.638 95.7622H227.769ZM235.076 95.7622V102.697H234.03V95.7622H235.076ZM236.791 102.697V95.7622H241.139V96.6629H237.837V98.7759H240.912V99.6732H237.837V101.796H241.179V102.697H236.791ZM244.085 102.697L242.162 95.7622H243.262L244.613 101.133H244.677L246.083 95.7622H247.173L248.578 101.136H248.643L249.99 95.7622H251.094L249.167 102.697H248.114L246.655 97.5027H246.601L245.141 102.697H244.085Z" fill="#000AF4"/>
</svg>
